#!OML:ASF G:\JayActor3\Patient Classification 1\Patient 1\Session 6\male.ASF
:FULLY-SPECIFIED
:DEGREES
3869
root -7.56257 16.486 -2.44919 886.883 -77.8756 -888.775
lowerback 10.6286 -1.78734 4.94916
upperback -2.84729 -1.65381 0.60745
thorax -9.16193 -1.06083 -1.8322
lowerneck 5.0552 -5.8644 -2.64468
upperneck -37.3904 -7.46525 13.665
head -12.5002 -5.55385 6.8675
rclavicle -1.14922e-014 -3.97569e-015
rhumerus -27.3877 -2.05942 -83.0819
rradius 34.2937
rwrist -11.4679
rhand -18.5688 -4.82321
rfingers 7.12502
rthumb 7.7214 -34.6622
lclavicle -1.14922e-014 -3.97569e-015
lhumerus -42.7743 25.1193 66.2828
lradius 26.1362
lwrist 26.4592
lhand -19.6575 5.08455
lfingers 7.12502
lthumb 6.67048 34.9595
rfemur -2.16363 6.03844 9.82912
rtibia 17.57
rfoot -32.1046 -31.0298
rtoes 9.4133
lfemur -19.932 16.461 -10.7301
ltibia 31.7959
lfoot -9.11077 -6.90557
ltoes -24.4996
3870
root -7.52794 16.4804 -2.40879 886.471 -77.3856 -888.738
lowerback 10.5644 -1.75415 4.97921
upperback -2.79693 -1.60875 0.634388
thorax -9.06619 -1.0375 -1.83136
lowerneck 5.12125 -5.81536 -2.62186
upperneck -37.1231 -7.34812 13.7139
head -12.4101 -5.50208 6.84535
rclavicle 4.84413e-014 -1.35174e-014
rhumerus -27.3575 -1.44587 -83.5964
rradius 36.0297
rwrist -13.2252
rhand -18.0989 -5.08798
rfingers 7.12502
rthumb 8.17485 -34.9098
lclavicle 4.84413e-014 -1.35174e-014
lhumerus -43.3111 25.9371 65.5341
lradius 25.1861
lwrist 25.8692
lhand -19.4324 5.47168
lfingers 7.12502
lthumb 6.88776 35.3396
rfemur -1.94097 6.24274 9.85499
rtibia 17.3286
rfoot -31.5331 -31.1393
rtoes 9.10464
lfemur -19.2511 16.5366 -9.97006
ltibia 33.7633
lfoot -10.4251 -5.10288
ltoes -24.686
3871
root -7.49564 16.4743 -2.36589 886.161 -76.8636 -888.803
lowerback 10.4881 -1.73187 4.98509
upperback -2.75361 -1.58234 0.661309
thorax -8.97168 -1.02198 -1.81355
lowerneck 5.19347 -5.75164 -2.59497
upperneck -36.8816 -7.21757 13.7534
head -12.3355 -5.44499 6.82207
rclavicle -2.01891e-014 -4.37326e-015
rhumerus -27.3017 -0.851747 -84.0973
rradius 37.6637
rwrist -14.4259
rhand -17.6725 -5.28164
rfingers 7.12502
rthumb 8.58635 -35.087
lclavicle -2.01891e-014 -4.37326e-015
lhumerus -43.9522 26.795 64.6988
lradius 24.2452
lwrist 25.273
lhand -19.0681 5.85439
lfingers 7.12502
lthumb 7.23945 35.7105
rfemur -1.71219 6.41962 9.85083
rtibia 17.0679
rfoot -30.9517 -31.2227
rtoes 8.79473
lfemur -18.4877 16.6255 -9.22385
ltibia 35.7553
lfoot -11.5156 -3.03153
ltoes -24.5203
3872
root -7.46568 16.4676 -2.32065 885.969 -76.318 -888.978
lowerback 10.3945 -1.71783 4.95919
upperback -2.71921 -1.57237 0.68542
thorax -8.8771 -1.01294 -1.77807
lowerneck 5.26936 -5.67667 -2.55373
upperneck -36.6703 -7.07791 13.7801
head -12.2779 -5.38549 6.79507
rclavicle 1.7667e-014 -9.93923e-015
rhumerus -27.227 -0.294245 -84.5791
rradius 39.2022
rwrist -15.0641
rhand -17.2441 -5.37327
rfingers 7.12502
rthumb 8.9998 -35.1613
lclavicle 1.7667e-014 -9.93923e-015
lhumerus -44.6905 27.705 63.7586
lradius 23.2903
lwrist 24.6411
lhand -18.5568 6.18733
lfingers 7.12502
lthumb 7.73298 36.0259
rfemur -1.48854 6.5348 9.80322
rtibia 16.7924
rfoot -30.3519 -31.2644
rtoes 8.49711
lfemur -17.6482 16.7196 -8.50483
ltibia 37.7375
lfoot -12.3641 -0.734957
ltoes -23.9492
3873
root -7.43775 16.4603 -2.2733 885.856 -75.7533 -889.217
lowerback 10.284 -1.71077 4.90345
upperback -2.69546 -1.57644 0.710323
thorax -8.78435 -1.00934 -1.72264
lowerneck 5.34279 -5.59013 -2.50234
upperneck -36.4832 -6.92696 13.7993
head -12.2328 -5.32258 6.76568
rclavicle -1.79403e-014 -9.34288e-015
rhumerus -27.1421 0.2325 -85.0396
rradius 40.6644
rwrist -15.1747
rhand -16.7821 -5.36259
rfingers 7.12502
rthumb 9.44555 -35.1309
lclavicle -1.79403e-014 -9.34288e-015
lhumerus -45.5279 28.6664 62.706
lradius 22.3184
lwrist 23.9457
lhand -17.9085 6.43802
lfingers 7.12502
lthumb 8.3586 36.2526
rfemur -1.27898 6.60247 9.7218
rtibia 16.5059
rfoot -29.7505 -31.2763
rtoes 8.21373
lfemur -16.7373 16.8099 -7.80846
ltibia 39.6731
lfoot -12.9648 1.70125
ltoes -22.8544
